<?xml version="1.0" encoding="utf-8"?>
<!-- Generator: Adobe Illustrator 25.2.0, SVG Export Plug-In . SVG Version: 6.00 Build 0)  -->
<svg version="1.1" id="Calque_1" xmlns="http://www.w3.org/2000/svg" xmlns:xlink="http://www.w3.org/1999/xlink" x="0px" y="0px"
	 viewBox="0 0 78.6 104.8" style="enable-background:new 0 0 78.6 104.8;" xml:space="preserve">
<style type="text/css">
	.st0{fill:#FFFFFF;stroke:#3A65A8;stroke-width:2;}
	.st1{opacity:0.5;fill:#FFFFFF;enable-background:new    ;}
	.st2{fill:#3A65A8;stroke:#3A65A8;stroke-miterlimit:10;}
	.st3{fill:#3A65A8;}
	.st4{fill:#FFFFFF;stroke:#3A65A8;stroke-width:2;stroke-miterlimit:10;}
</style>
<path id="Tracé_126" class="st0" d="M1,24.3v41.2c0,1,0.5,1.8,1.3,2.3L38,88.3c0.8,0.5,1.8,0.5,2.7,0l35.6-20.6
	c0.8-0.5,1.3-1.4,1.3-2.3V24.3c0-0.9-0.5-1.8-1.3-2.3L40.6,1.4c-0.8-0.5-1.8-0.5-2.7,0L2.3,22C1.5,22.4,1,23.3,1,24.3z"/>
<path id="Tracé_127" class="st1" d="M45.7,41.9h-8.5l-5.6,13.6c-0.6,1.4,0.1,3.1,1.5,3.7h15.5c1.5,0,2.8-1.2,2.8-2.8
	c0-0.4-0.1-0.7-0.2-1.1L45.7,41.9z"/>
<g id="Groupe_202">
	<path id="Tracé_128" class="st2" d="M51.8,55l-7.7-18.7c-0.4-1-0.6-2.1-0.6-3.3v-4.9c0-0.5,0.2-1,0.6-1.4c0.5-0.5,0.7-1.1,0.7-1.7
		v-0.7c0-0.4-0.3-0.7-0.7-0.7h-9.9c-0.4,0-0.7,0.3-0.7,0.7l0,0V25c0,0.6,0.3,1.3,0.7,1.7c0.4,0.4,0.6,0.9,0.6,1.4V33
		c0,1.1-0.2,2.2-0.6,3.3l-2.1,5.1v0L26.5,55c-0.7,1.8,0.1,3.8,1.9,4.6c0.4,0.2,0.9,0.3,1.3,0.3h18.8c1.9,0,3.5-1.6,3.5-3.5
		C52.1,55.8,52,55.4,51.8,55L51.8,55z M35.5,36.8c0.5-1.2,0.7-2.5,0.7-3.8v-4.9c0-0.9-0.4-1.8-1-2.4c-0.2-0.2-0.3-0.4-0.3-0.7h8.5
		c0,0.3-0.1,0.5-0.3,0.7c-0.6,0.6-1,1.5-1,2.4V33c0,1.3,0.3,2.6,0.7,3.8l1.7,4.2H33.7L35.5,36.8z M50.3,57.5c-0.4,0.6-1,0.9-1.7,0.9
		H29.7c-1.2,0-2.1-0.9-2.1-2.1c0-0.1,0-0.2,0-0.3h1.2c0.4,0,0.7-0.3,0.7-0.7s-0.3-0.7-0.7-0.7l0,0h-0.6l0.8-2h1.2
		c0.4,0,0.7-0.3,0.7-0.7s-0.3-0.7-0.7-0.7l0,0h-0.6l0.8-2h1.2c0.4,0,0.7-0.3,0.7-0.7s-0.3-0.7-0.7-0.7H31l0.8-2H33
		c0.4,0,0.7-0.3,0.7-0.7c0-0.4-0.3-0.7-0.7-0.7h-0.7l0.8-2h12l5.4,13.1C50.8,56.1,50.7,56.9,50.3,57.5L50.3,57.5z"/>
	<path id="Tracé_129" class="st3" d="M48.3,55c-0.1-0.4-0.6-0.5-0.9-0.4s-0.5,0.6-0.4,0.9c0,0,0,0,0,0v0c0.1,0.4,0.6,0.5,0.9,0.4
		C48.3,55.8,48.5,55.4,48.3,55L48.3,55z"/>
	<path id="Tracé_130" class="st3" d="M47.3,52.6l-2.5-6.2c-0.2-0.4-0.6-0.5-0.9-0.4c-0.3,0.2-0.5,0.5-0.4,0.9l2.5,6.2
		c0.1,0.3,0.4,0.4,0.7,0.4c0.1,0,0.2,0,0.3-0.1C47.3,53.3,47.5,52.9,47.3,52.6z"/>
</g>
<circle id="Ellipse_38" class="st4" cx="39" cy="87.8" r="16.1"/>
<g>
	<path class="st3" d="M46.1,85.8c-1.7,1.4-3,2.6-6.6,0.5c-4.8-2.7-7-0.8-8.8,0.8c-0.4,0.4-0.5,1-0.1,1.4c0.3,0.4,0.9,0.5,1.3,0.1
		c0,0,0,0,0,0c1.7-1.4,3-2.6,6.6-0.5c1.3,0.8,2.8,1.3,4.3,1.4c1.7-0.1,3.3-0.9,4.5-2.1c0.4-0.4,0.5-1,0.1-1.4
		C47.1,85.6,46.6,85.5,46.1,85.8C46.1,85.8,46.1,85.8,46.1,85.8z"/>
	<path class="st3" d="M46.1,90.8c-1.7,1.4-3,2.6-6.6,0.5c-4.8-2.7-7-0.8-8.8,0.8c-0.4,0.4-0.5,1-0.1,1.4c0.3,0.4,0.9,0.5,1.3,0.1
		c0,0,0,0,0,0c1.7-1.4,3-2.6,6.6-0.5c1.3,0.8,2.8,1.3,4.3,1.4c1.7-0.1,3.3-0.9,4.5-2.1c0.4-0.4,0.5-1,0.1-1.4
		C47.1,90.5,46.6,90.4,46.1,90.8C46.1,90.8,46.1,90.8,46.1,90.8z"/>
	<path class="st3" d="M46.1,80.9c-1.7,1.4-3,2.6-6.6,0.5c-4.8-2.7-7-0.8-8.8,0.8c-0.4,0.4-0.5,1-0.1,1.4c0.3,0.4,0.9,0.5,1.3,0.1
		c0,0,0,0,0,0c1.7-1.4,3-2.6,6.6-0.5c1.3,0.8,2.8,1.3,4.3,1.4c1.7-0.1,3.3-0.9,4.5-2.1c0.4-0.4,0.5-1,0.1-1.4
		C47.1,80.6,46.6,80.6,46.1,80.9C46.1,80.9,46.1,80.9,46.1,80.9z"/>
</g>
</svg>
